<?xml version="1.0" standalone="no"?><!DOCTYPE svg PUBLIC "-//W3C//DTD SVG 1.1//EN" "http://www.w3.org/Graphics/SVG/1.1/DTD/svg11.dtd"><svg t="1557837233054" class="icon" style="" viewBox="0 0 1024 1024" version="1.1" xmlns="http://www.w3.org/2000/svg" p-id="2508" xmlns:xlink="http://www.w3.org/1999/xlink" width="200" height="200"><defs><style type="text/css"></style></defs><path d="M512 512m-507.448889 0a507.448889 507.448889 0 1 0 1014.897778 0 507.448889 507.448889 0 1 0-1014.897778 0Z" fill="" p-id="2509"></path><path d="M828.302222 494.933333v89.884445l-5.688889-5.688889-21.617777-15.928889c-68.266667-50.062222-159.288889-61.44-237.795556-27.306667l-3.413333 2.275556V422.115556c0-7.964444-1.137778-14.791111-5.688889-21.617778 0 0-2.275556-2.275556-3.413334-2.275556-11.377778 2.275556-21.617778 7.964444-31.857777 13.653334l-2.275556 2.275555c-1.137778 0-2.275556 1.137778-2.275555 2.275556-5.688889 3.413333-12.515556 7.964444-19.342223 10.24-45.511111 21.617778-94.435556 32.995556-144.497777 32.995555-53.475556 0-106.951111-13.653333-154.737778-38.684444-3.413333-2.275556-5.688889-3.413333-7.964445-5.688889h-2.275555c-2.275556-2.275556-4.551111-3.413333-7.964445-3.413333-9.102222-5.688889-19.342222-10.24-29.582222-12.515556-2.275556 0-2.275556 0-3.413333 2.275556-3.413333 6.826667-5.688889 13.653333-5.688889 21.617777v124.017778c0 2.275556 2.275556 7.964444 2.275555 10.24 2.275556 7.964444 3.413333 17.066667 5.688889 23.893333 2.275556 5.688889 3.413333 7.964444 5.688889 13.653334 2.275556 4.551111 4.551111 9.102222 7.964445 13.653333 0 2.275556 2.275556 2.275556 2.275555 3.413333 2.275556 2.275556 3.413333 5.688889 5.688889 7.964445s2.275556 3.413333 3.413333 3.413333H227.555556c-3.413333-5.688889-7.964444-13.653333-15.928889-23.893333-4.551111-9.102222-9.102222-18.204444-12.515556-27.306667v-100.124444l3.413333 2.275555c47.786667 20.48 100.124444 30.72 152.462223 29.582223 48.924444 0 96.711111-9.102222 141.084444-26.168889 2.275556-1.137778 5.688889-2.275556 7.964445-3.413334l3.413333-2.275555v56.888889c0 14.791111-1.137778 29.582222-5.688889 43.235555-3.413333 9.102222-7.964444 18.204444-12.515556 27.306667-4.551111 7.964444-10.24 17.066667-15.928888 23.893333h56.888888c0-2.275556 2.275556-2.275556 2.275556-3.413333v-2.275556c2.275556-2.275556 3.413333-5.688889 5.688889-7.964444 0-2.275556 2.275556-2.275556 2.275555-3.413333 10.24-12.515556 22.755556-22.755556 37.546667-29.582223 25.031111-12.515556 52.337778-19.342222 80.782222-19.342222 23.893333 0 48.924444 4.551111 71.68 13.653333 15.928889 6.826667 29.582222 14.791111 43.235556 23.893334 9.102222 7.964444 18.204444 15.928889 26.168889 23.893333h81.92v-68.266667c-1.137778-14.791111-18.204444-39.822222-53.475556-55.751111z" fill="#00A4FF" p-id="2510"></path></svg>